<svg id="Layer_1" data-name="Layer 1" xmlns="http://www.w3.org/2000/svg" viewBox="0 0 24 24"><defs><style>.cls-1{fill:#f8d55e;}.cls-2{fill:#fff;}</style></defs><circle class="cls-1" cx="12" cy="12" r="12"/><path class="cls-2" d="M17.9,5.4H12.66V3.65a.59.59,0,0,0-1.17,0V5.4H6.25A.58.58,0,0,0,5.67,6V16.26a.58.58,0,0,0,.58.59H8.34L7,20.58a.6.6,0,0,0,.34.76.76.76,0,0,0,.21,0A.58.58,0,0,0,8.05,21l.7-1.88H15.4L16.1,21a.58.58,0,0,0,.55.38.64.64,0,0,0,.2,0,.59.59,0,0,0,.35-.76l-1.39-3.73H17.9a.58.58,0,0,0,.58-.59V6A.58.58,0,0,0,17.9,5.4ZM15,17.94H9.18l.41-1.09h5Z"/></svg>