<svg id="Layer_1" data-name="Layer 1" xmlns="http://www.w3.org/2000/svg" viewBox="0 0 24 24"><defs><style>.cls-1{fill:#fff;}.cls-2{fill:#f36f5b;}</style></defs><circle class="cls-1" cx="12" cy="12" r="12"/><path class="cls-2" d="M14.49,13.79a.71.71,0,0,0,0-.14V5.94a.53.53,0,0,0-.36-.52c-4.53-1.64-9.8-.08-10,0a.55.55,0,0,0-.39.53v7.83a.32.32,0,0,0,0,.14c.41,1.58,2.08,4.58,5.37,4.58S14.07,15.41,14.49,13.79ZM6.35,9.3H7.94a.56.56,0,0,1,0,1.11H6.35a.56.56,0,0,1,0-1.11Zm.56,4.1h4.41s-.67,2-2.2,2S6.91,13.4,6.91,13.4Zm3.38-3a.56.56,0,0,1,0-1.11h1.59a.56.56,0,1,1,0,1.11Z"/><path class="cls-2" d="M19.91,8.26a13.71,13.71,0,0,0-4.27-.74.71.71,0,0,0-.4.16.52.52,0,0,0-.17.39L15,13.8a4.57,4.57,0,0,1-1,2.6l.1,0,.26,0c.11,0,.23,0,.33,0a4.37,4.37,0,0,1,.52.12l.05,0a3.85,3.85,0,0,1,1.46,1.39,4.21,4.21,0,0,1,.26.45H12.14a9.77,9.77,0,0,1-.81.57.56.56,0,0,0-.26.37.55.55,0,0,0,.1.43c.9,1.2,1.83,1.61,3.71,1.61,3.3,0,5-3.08,5.38-4.7a.66.66,0,0,0,0-.14V8.78A.55.55,0,0,0,19.91,8.26ZM15.58,12.2a.5.5,0,0,1,.24-.06h1.83a.56.56,0,1,1,0,1.11H15.82a.61.61,0,0,1-.24-.06.55.55,0,0,1-.32-.49A.56.56,0,0,1,15.58,12.2Z"/></svg>