<svg id="Layer_1" data-name="Layer 1" xmlns="http://www.w3.org/2000/svg" viewBox="0 0 24 24"><defs><style>.cls-1{fill:#ca485f;}.cls-2{fill:#fff;}</style></defs><circle class="cls-1" cx="12" cy="12" r="12"/><path class="cls-2" d="M12.16,7.84V7.27h1.12a.39.39,0,0,0,.39-.39V3.63a.39.39,0,0,0-.39-.4h-3a.39.39,0,0,0-.39.4V6.88a.39.39,0,0,0,.39.39h1.12v.58C8.56,8,7.78,9.46,7.75,9.52a.39.39,0,0,0,0,.18V20.82a.39.39,0,0,0,.39.39h7.24a.4.4,0,0,0,.39-.39V9.7a.38.38,0,0,0-.09-.25A4.88,4.88,0,0,0,12.16,7.84Z"/><path class="cls-2" d="M17.86,4.67H15.65a.58.58,0,0,0-.59.58.59.59,0,0,0,.59.59h2.21a.59.59,0,0,0,.59-.59A.58.58,0,0,0,17.86,4.67Z"/><path class="cls-2" d="M15.2,4.28h.09L17.48,4a.6.6,0,0,0,.5-.67.58.58,0,0,0-.66-.49l-2.2.31a.59.59,0,0,0,.08,1.17Z"/><path class="cls-2" d="M17.49,6.59,15.3,6.23a.59.59,0,0,0-.67.49.58.58,0,0,0,.48.67l2.19.35h.1a.58.58,0,0,0,.09-1.16Z"/></svg>